<?xml version="1.0" standalone="no"?>
<!DOCTYPE svg PUBLIC "-//W3C//DTD SVG 20010904//EN"
 "http://www.w3.org/TR/2001/REC-SVG-20010904/DTD/svg10.dtd">
<svg version="1.0" xmlns="http://www.w3.org/2000/svg"
 width="74.000000pt" height="90.000000pt" viewBox="0 0 74.000000 90.000000"
 preserveAspectRatio="xMidYMid meet">

<g transform="translate(0.000000,90.000000) scale(0.100000,-0.100000)"
fill="#5B63C4" stroke="none">
<path d="M197 794 c-4 -4 -7 -20 -7 -36 0 -21 -5 -28 -19 -28 -25 0 -43 -24
-39 -52 l3 -23 243 -3 242 -2 0 28 c0 32 -16 52 -41 52 -13 0 -19 10 -21 33
l-3 32 -176 3 c-96 1 -178 -1 -182 -4z"/>
<path d="M176 583 c2 -21 11 -128 19 -237 8 -110 19 -204 25 -210 5 -5 10 -27
10 -48 0 -21 3 -38 6 -38 3 0 20 10 36 22 34 24 73 102 82 163 5 36 3 41 -21
52 -22 11 -28 10 -39 -5 -12 -15 -13 -13 -14 19 0 20 6 42 14 48 8 7 17 28 21
48 7 40 39 108 54 118 15 9 59 -64 67 -110 3 -22 12 -47 19 -55 18 -22 26 -53
16 -68 -6 -10 -10 -10 -20 1 -9 12 -17 12 -34 4 -21 -10 -23 -15 -16 -64 8
-61 46 -132 83 -157 33 -21 36 -21 36 10 0 14 6 40 14 57 8 19 19 101 25 202
6 94 14 196 18 228 l6 57 -206 0 -205 0 4 -37z"/>
</g>
</svg>
